HIERARCHY
ROOT SpineBase
{
  OFFSET 0.000000 0.000000 0.000000
  CHANNELS 6 Xposition Yposition Zposition Zrotation Xrotation Yrotation
  JOINT SpineMid
  {
    OFFSET -0.000000 28.586509 0.000000
    CHANNELS 3 Zrotation Xrotation Yrotation
    JOINT SpineShoulder
    {
      OFFSET -0.114206 21.281955 -0.665775
      CHANNELS 3 Zrotation Xrotation Yrotation
      JOINT Neck
      {
        OFFSET -0.089587 7.047012 -0.519513
        CHANNELS 3 Zrotation Xrotation Yrotation
        JOINT Head
        {
          OFFSET -4.890020 11.912195 2.551300
          CHANNELS 3 Zrotation Xrotation Yrotation
          End Site
          {
            OFFSET 0 0 0
          }
        }
      }
      JOINT ShoulderLeft
      {
        OFFSET -11.367407 -5.039985 11.975299
        CHANNELS 3 Zrotation Xrotation Yrotation
        JOINT ElbowLeft
        {
          OFFSET -0.876658 -27.137648 5.991135
          CHANNELS 3 Zrotation Xrotation Yrotation
          JOINT WristLeft
          {
            OFFSET -2.681204 -21.676169 -0.843100
            CHANNELS 3 Zrotation Xrotation Yrotation
            JOINT HandLeft
            {
              OFFSET 0.031172 -5.892827 -1.914103
              CHANNELS 3 Zrotation Xrotation Yrotation
              JOINT HandTipLeft
              {
                OFFSET -0.129136 -6.125513 -0.107118
                CHANNELS 3 Zrotation Xrotation Yrotation
                End Site
                {
                  OFFSET 0 0 0
                }
              }
              JOINT ThumbLeft
              {
                OFFSET -1.796690 0.767054 -0.375667
                CHANNELS 3 Zrotation Xrotation Yrotation
                End Site
                {
                  OFFSET 0 0 0
                }
              }
            }
          }
        }
      }
      JOINT ShoulderRight
      {
        OFFSET 9.963224 -3.067372 -12.210124
        CHANNELS 3 Zrotation Xrotation Yrotation
        JOINT ElbowRight
        {
          OFFSET 4.798697 -25.188753 -7.160633
          CHANNELS 3 Zrotation Xrotation Yrotation
          JOINT WristRight
          {
            OFFSET -3.122100 -20.401977 -3.513699
            CHANNELS 3 Zrotation Xrotation Yrotation
            JOINT HandRight
            {
              OFFSET -1.658316 -8.047842 0.745167
              CHANNELS 3 Zrotation Xrotation Yrotation
              JOINT HandTipRight
              {
                OFFSET -0.967862 -7.167820 0.041906
                CHANNELS 3 Zrotation Xrotation Yrotation
                End Site
                {
                  OFFSET 0 0 0
                }
              }
              JOINT ThumbRight
              {
                OFFSET -3.063194 0.907499 0.002460
                CHANNELS 3 Zrotation Xrotation Yrotation
                End Site
                {
                  OFFSET 0 0 0
                }
              }
            }
          }
        }
      }
    }
  }
  JOINT HipLeft
  {
    OFFSET -5.297707 0.085407 0.984347
    CHANNELS 3 Zrotation Xrotation Yrotation
    JOINT KneeLeft
    {
      OFFSET -1.171201 -30.962948 3.092198
      CHANNELS 3 Zrotation Xrotation Yrotation
      JOINT AnkleLeft
      {
        OFFSET 1.203935 -35.211296 3.336709
        CHANNELS 3 Zrotation Xrotation Yrotation
        JOINT FootLeft
        {
          OFFSET -7.556432 -4.111635 -9.806326
          CHANNELS 3 Zrotation Xrotation Yrotation
          End Site
          {
            OFFSET 0 0 0
          }
        }
      }
    }
  }
  JOINT HipRight
  {
    OFFSET 4.014937 1.364467 -7.604627
    CHANNELS 3 Zrotation Xrotation Yrotation
    JOINT KneeRight
    {
      OFFSET 13.714774 -32.310521 0.941108
      CHANNELS 3 Zrotation Xrotation Yrotation
      JOINT AnkleRight
      {
        OFFSET 8.726392 -33.528026 8.318465
        CHANNELS 3 Zrotation Xrotation Yrotation
        JOINT FootRight
        {
          OFFSET -9.013016 -3.684056 -10.314250
          CHANNELS 3 Zrotation Xrotation Yrotation
          End Site
          {
            OFFSET 0 0 0
          }
        }
      }
    }
  }
}
MOTION
Frames: 14
Frame Time: 0.033333
-46.598658 125.658117 306.738656 9.882279 -0.103942 16.371470 -0.409985 -0.072144 -16.049986 -0.670157 -0.130161 0.362340 -1.384524 -19.110836 -9.199699 0.000000 0.000000 0.000000 -9.499953 -1.171970 -0.697881 -4.062503 14.601132 -0.664072 -8.177088 -3.081527 4.284206 24.743094 2.419706 -2.572545 0.000000 0.000000 0.000000 0.000000 0.000000 0.000000 17.933621 -22.355669 -7.602624 1.130601 13.581742 4.400031 -13.568834 16.327780 2.388726 -6.415070 -17.229035 2.565120 0.000000 0.000000 0.000000 0.000000 0.000000 0.000000 1.403058 11.303696 -17.099944 24.478005 -38.421272 14.728162 -19.272540 30.005792 -21.326477 0.000000 0.000000 0.000000 -35.818175 23.137644 -4.314736 8.782330 3.538972 -4.338775 43.572866 -34.250943 14.540795 0.000000 0.000000 0.000000
-49.539157 124.958961 303.950581 9.254203 -0.092281 18.239807 -0.322796 0.006296 -17.945105 -0.679605 -0.106949 0.335820 -0.392981 -17.889379 -8.655979 0.000000 0.000000 0.000000 -9.032595 -2.142663 -0.671894 -1.222219 9.974957 -0.563208 -11.548601 0.002959 4.453721 25.941538 0.879999 -2.969481 0.000000 0.000000 0.000000 0.000000 0.000000 0.000000 17.514690 -20.590269 -7.461361 4.999769 10.889607 3.369673 -12.420385 15.375515 3.158109 -9.648405 -17.519623 2.188745 0.000000 0.000000 0.000000 0.000000 0.000000 0.000000 10.721813 15.947686 -20.556530 24.453496 -51.755221 22.209691 -16.769663 32.816317 -23.592420 0.000000 0.000000 0.000000 -34.363079 23.208073 -6.752459 9.277046 2.580577 -4.419759 42.715499 -33.133190 18.357054 0.000000 0.000000 0.000000
-52.931470 124.236499 301.757936 8.244628 -0.750284 19.110712 -0.325354 0.141864 -18.812717 -0.796035 -0.043340 0.277961 2.339720 -16.618021 -8.369483 0.000000 0.000000 0.000000 -8.154997 -2.483157 -0.598381 2.844457 4.794393 -0.288848 -20.438992 -1.616958 5.828887 30.430994 3.626293 -6.341154 0.000000 0.000000 0.000000 0.000000 0.000000 0.000000 17.492368 -18.175311 -7.447015 7.991632 8.568119 2.660310 -9.178062 13.538705 3.941455 -11.566753 -16.317326 1.915150 0.000000 0.000000 0.000000 0.000000 0.000000 0.000000 20.465545 20.255938 -23.721560 28.267681 -64.001928 33.076617 -16.391819 38.522727 -22.948676 0.000000 0.000000 0.000000 -31.532218 24.349494 -7.271137 9.800063 -0.711558 -5.375853 37.061502 -29.264075 14.881301 0.000000 0.000000 0.000000
-56.171102 123.472815 299.406565 7.329543 -0.946036 21.577086 -0.342798 -0.007484 -21.291682 -0.846901 -0.099045 0.239121 4.887715 -15.502515 -8.191774 0.000000 0.000000 0.000000 -7.390212 -2.635011 -0.528651 7.038079 -0.135726 0.180114 -34.015063 -12.037807 7.578294 40.193643 11.409180 -14.709567 0.000000 0.000000 0.000000 0.000000 0.000000 0.000000 16.794050 -15.445133 -7.305221 10.444376 6.559062 1.996022 -6.287869 12.293788 4.360368 -13.554220 -16.711176 1.975095 0.000000 0.000000 0.000000 0.000000 0.000000 0.000000 25.373400 20.553045 -27.061659 36.949264 -68.333284 43.788253 -22.548262 45.467042 -15.333013 0.000000 0.000000 0.000000 -27.792938 25.268892 -10.092105 10.001164 -3.938961 -6.145611 28.505024 -21.422145 5.124854 0.000000 0.000000 0.000000
-59.336764 122.855921 296.973464 6.779602 -1.087350 21.957920 -0.470124 -0.007016 -21.686897 -0.834960 -0.059559 0.209538 6.897841 -14.430351 -7.956398 0.000000 0.000000 0.000000 -6.944923 -2.844397 -0.517087 10.814415 -4.225235 0.815196 -47.829551 -30.316076 5.998250 52.738483 23.121949 -28.148512 0.000000 0.000000 0.000000 0.000000 0.000000 0.000000 15.936472 -12.733772 -7.024850 11.975864 4.061394 1.930605 -4.172241 14.270722 3.164147 -14.016093 -18.696761 2.487575 0.000000 0.000000 0.000000 0.000000 0.000000 0.000000 23.907870 18.582111 -26.460054 38.728146 -64.789443 42.964122 -25.533956 43.502971 -11.770776 0.000000 0.000000 0.000000 -24.977416 24.556802 -11.308238 9.776312 -6.573472 -6.611570 23.405881 -14.598714 -3.320591 0.000000 0.000000 0.000000
-62.252042 122.508387 294.725138 6.422239 -1.224839 22.298532 -0.600161 0.100517 -22.040362 -0.885284 0.012672 0.181964 8.749597 -13.273811 -7.665608 0.000000 0.000000 0.000000 -6.631820 -2.904419 -0.539186 13.800480 -7.394628 1.501524 -59.471659 -46.168489 1.026392 63.711874 31.923916 -40.894614 0.000000 0.000000 0.000000 0.000000 0.000000 0.000000 14.649612 -10.376766 -6.576541 11.968799 3.324499 1.524333 -2.078482 15.372193 1.942151 -9.973511 -20.088054 3.692949 0.000000 0.000000 0.000000 0.000000 0.000000 0.000000 16.407163 13.642124 -24.445959 35.847494 -52.207385 31.323512 -25.872595 34.730312 -16.876754 0.000000 0.000000 0.000000 -22.025259 23.228125 -12.825049 8.732728 -7.892010 -6.723991 19.392614 -8.150614 -10.160667 0.000000 0.000000 0.000000
-65.353718 122.339300 292.693700 6.312118 -1.482316 22.791842 -0.777105 0.203394 -22.528233 -0.936246 0.032970 0.165215 10.349781 -11.773999 -7.414809 0.000000 0.000000 0.000000 -6.274951 -2.552685 -0.504126 15.464321 -9.365796 1.990144 -71.723020 -56.957261 -6.529281 73.770594 39.531246 -51.155156 0.000000 0.000000 0.000000 0.000000 0.000000 0.000000 13.121210 -8.150020 -6.128486 10.247237 3.411149 1.292388 0.248823 13.390248 1.998489 -7.550612 -18.285608 3.528243 0.000000 0.000000 0.000000 0.000000 0.000000 0.000000 11.623542 10.401349 -23.830557 35.117418 -43.651475 24.743681 -21.608580 22.149775 -22.486133 0.000000 0.000000 0.000000 -18.886822 21.823513 -14.512550 7.155382 -9.056753 -6.835607 16.130755 -1.618931 -16.204908 0.000000 0.000000 0.000000
-68.462693 122.118866 291.152747 5.998797 -1.856019 22.965459 -0.798483 0.203905 -22.695679 -0.961164 0.066254 0.149231 12.532523 -10.502477 -7.403001 0.000000 0.000000 0.000000 -5.618664 -2.276712 -0.388666 15.484156 -9.768640 2.037116 -80.183687 -63.274585 -15.221297 81.571989 47.275796 -58.835323 0.000000 0.000000 0.000000 0.000000 0.000000 0.000000 11.755096 -5.675903 -5.667471 7.291633 3.166896 1.452627 1.761324 11.298529 1.960889 -4.787649 -12.016717 1.810032 0.000000 0.000000 0.000000 0.000000 0.000000 0.000000 6.777489 7.505620 -23.230897 34.394084 -33.376407 17.805844 -22.030393 14.094257 -19.295142 0.000000 0.000000 0.000000 -15.071472 19.586841 -16.177278 4.762201 -9.363618 -6.682946 16.033956 -1.206852 -17.903598 0.000000 0.000000 0.000000
-70.820656 121.992663 289.830555 6.579943 -2.352101 26.005143 -0.765496 0.214007 -25.676414 -1.034042 0.136265 0.169551 13.126393 -8.582209 -7.290020 0.000000 0.000000 0.000000 -6.302937 -1.697683 -0.417769 15.860136 -9.088330 1.898549 -88.251051 -66.570783 -23.760317 83.155433 50.634967 -61.091497 0.000000 0.000000 0.000000 0.000000 0.000000 0.000000 9.536926 -2.838314 -5.185203 3.451858 2.211701 1.848591 3.039222 10.290475 1.234434 -4.913706 -6.555978 0.153970 0.000000 0.000000 0.000000 0.000000 0.000000 0.000000 0.086062 6.935113 -25.961396 36.856099 -23.142533 12.568395 -18.733656 1.587453 -24.142683 0.000000 0.000000 0.000000 -11.951053 18.208306 -20.538977 2.278605 -8.780515 -6.355621 15.576655 -0.983868 -16.190709 0.000000 0.000000 0.000000
-73.509386 122.491956 288.242909 6.925364 -2.540249 25.425871 -0.818052 0.391909 -25.074977 -1.142502 0.201461 0.171285 14.557289 -7.023845 -7.105538 0.000000 0.000000 0.000000 -6.318893 -1.764913 -0.404075 15.920158 -7.175092 1.384083 -93.207745 -67.623597 -29.715106 83.603426 50.811570 -61.919622 0.000000 0.000000 0.000000 0.000000 0.000000 0.000000 7.863266 -0.514614 -4.546991 -0.791515 1.335503 2.081513 1.086293 11.166497 -0.221643 -2.658602 -3.019986 -0.008529 0.000000 0.000000 0.000000 0.000000 0.000000 0.000000 -5.185843 5.250186 -25.034212 36.192164 -12.634433 7.097078 -17.632457 -3.791867 -26.720259 0.000000 0.000000 0.000000 -10.538358 16.171962 -20.894265 0.756891 -8.162038 -5.816359 16.072073 -3.904722 -11.507524 0.000000 0.000000 0.000000
-76.200431 122.335710 286.445942 7.069732 -2.378214 24.550940 -0.843528 0.408566 -24.203864 -0.905846 0.101863 0.190897 15.266645 -5.276153 -6.828450 0.000000 0.000000 0.000000 -6.638116 -1.853856 -0.421732 15.852917 -7.859101 1.553912 -85.382641 -65.873716 -22.514143 81.629758 49.245983 -60.083887 0.000000 0.000000 0.000000 0.000000 0.000000 0.000000 5.247971 1.483216 -3.668982 -4.208240 0.866531 1.879376 -2.054971 12.878902 -1.721612 -2.074879 -2.285690 0.682263 0.000000 0.000000 0.000000 0.000000 0.000000 0.000000 -9.154985 3.538953 -24.046255 33.017081 -2.789491 2.766028 -14.593848 -8.311243 -25.061976 0.000000 0.000000 0.000000 -10.136288 13.460413 -21.091736 0.994241 -7.003653 -4.544743 14.734736 -4.483429 -10.033592 0.000000 0.000000 0.000000
-78.355409 121.859615 284.804989 7.670917 -2.148165 23.658771 -0.762298 0.262560 -23.290733 -1.029288 0.072687 0.215882 15.903323 -3.615468 -6.635709 0.000000 0.000000 0.000000 -7.216203 -1.973038 -0.455933 15.666312 -7.796371 1.531096 -85.492275 -65.927176 -22.792345 81.778147 49.125745 -60.233625 0.000000 0.000000 0.000000 0.000000 0.000000 0.000000 2.996032 3.089081 -2.978731 -9.098337 1.036990 1.861329 -2.906654 14.611172 -3.176918 -2.271466 -2.770015 1.380243 0.000000 0.000000 0.000000 0.000000 0.000000 0.000000 -11.331240 3.560461 -23.143888 27.890222 1.666584 1.315428 -3.853721 -21.050073 -23.007985 0.000000 0.000000 0.000000 -10.435618 11.101683 -21.110964 1.361495 -5.392841 -3.264005 13.326222 -5.054395 -8.918452 0.000000 0.000000 0.000000
-80.813372 120.651873 283.667878 8.201133 -2.483558 23.312698 -0.907328 0.507351 -22.904614 -1.039273 0.094697 0.227191 16.947806 -1.807735 -6.581985 0.000000 0.000000 0.000000 -7.466931 -1.844895 -0.450241 15.687460 -7.806233 1.525421 -85.457133 -65.697926 -22.357691 81.698708 48.593989 -60.022440 0.000000 0.000000 0.000000 0.000000 0.000000 0.000000 0.835640 4.852705 -2.181583 -12.710733 0.983342 1.595364 -6.328548 17.331239 -4.294721 1.258065 -4.927209 2.961783 0.000000 0.000000 0.000000 0.000000 0.000000 0.000000 -11.821845 5.708444 -22.725670 18.900037 4.832024 0.953519 2.492713 -19.766927 -19.143640 0.000000 0.000000 0.000000 -10.442585 10.440547 -21.101178 3.312985 -5.015137 -2.161678 10.441348 -4.776825 -9.034174 0.000000 0.000000 0.000000
-83.156347 118.973538 282.350373 8.552275 -2.363850 22.301278 -0.868880 0.204046 -21.867897 -0.938556 0.137780 0.251458 17.671187 -0.125750 -6.582510 0.000000 0.000000 0.000000 -8.037467 -1.769035 -0.466065 15.692299 -7.777005 1.510455 -85.633036 -65.820581 -22.605383 81.839803 48.577396 -60.210466 0.000000 0.000000 0.000000 0.000000 0.000000 0.000000 -1.843376 6.371905 -1.297026 -15.555609 1.642706 1.163288 -8.153004 18.142663 -5.051524 2.599881 -7.309758 3.715912 0.000000 0.000000 0.000000 0.000000 0.000000 0.000000 -13.727750 6.789422 -21.704914 11.667342 8.092003 0.861559 3.634150 -12.952122 -12.327429 0.000000 0.000000 0.000000 -10.699189 8.875315 -20.655671 5.469964 -4.181894 -0.919907 6.938313 -3.813005 -9.568668 0.000000 0.000000 0.000000
